<?xml version="1.0" standalone="no"?>
<!DOCTYPE svg PUBLIC "-//W3C//DTD SVG 20010904//EN"
 "http://www.w3.org/TR/2001/REC-SVG-20010904/DTD/svg10.dtd">
<svg version="1.0" xmlns="http://www.w3.org/2000/svg"
 width="164.000000pt" height="164.000000pt" viewBox="0 0 164.000000 164.000000"
 preserveAspectRatio="xMidYMid meet">
<metadata>
Created by potrace 1.14, written by Peter Selinger 2001-2017
</metadata>
<g transform="translate(0.000000,164.000000) scale(0.100000,-0.100000)"
fill="#000000" stroke="none">
<path d="M688 1474 c-18 -6 -37 -12 -43 -14 -61 -17 -133 -75 -163 -131 -17
-31 -26 -67 -29 -120 -6 -77 11 -203 30 -226 5 -7 6 -13 3 -13 -4 0 -1 -10 6
-22 27 -50 22 -63 -29 -79 -57 -18 -67 -35 -85 -137 -9 -54 -9 -83 -1 -115 6
-23 35 -142 64 -264 47 -198 55 -223 73 -223 11 0 96 24 190 54 94 30 190 60
214 67 26 7 55 26 72 46 16 18 34 33 39 33 5 0 13 10 17 23 4 12 11 25 17 29
12 7 -10 68 -24 68 -5 0 -8 3 -7 8 3 13 -42 102 -52 102 -6 0 -10 9 -10 20 0
11 -8 28 -17 38 -10 10 -20 27 -21 37 -2 11 -10 27 -17 35 -7 8 -14 20 -16 25
-2 6 -21 42 -42 82 -37 68 -64 92 -114 99 -7 1 -33 10 -57 19 -42 16 -48 16
-92 1 -26 -9 -48 -15 -49 -13 -5 8 -27 67 -26 69 1 2 -5 19 -13 38 -8 19 -15
38 -15 43 -1 4 -1 8 -2 10 -2 4 -9 63 -12 102 -2 22 2 58 8 80 7 22 14 47 16
55 11 41 106 129 132 122 4 -1 7 3 7 9 0 5 4 8 9 4 5 -3 12 -1 16 5 4 6 10 8
15 5 5 -3 11 -1 15 4 9 15 228 8 233 -7 2 -7 7 -10 11 -8 3 3 18 -5 31 -16 14
-11 18 -17 10 -13 -13 6 -13 5 0 -7 19 -16 15 -87 -6 -95 -7 -3 -11 -9 -8 -14
3 -6 -1 -20 -9 -32 -9 -15 -13 -45 -12 -92 3 -74 21 -120 70 -173 14 -15 25
-29 25 -33 0 -3 11 -11 25 -17 23 -11 25 -17 25 -84 0 -68 3 -75 33 -109 17
-20 48 -55 68 -77 20 -23 40 -42 44 -42 12 0 135 105 135 115 0 6 -32 47 -70
92 l-70 81 -70 12 c-52 9 -70 16 -70 28 0 8 -3 13 -6 9 -9 -8 -55 44 -48 55 3
4 1 7 -4 6 -6 -2 -11 2 -12 7 -1 6 -8 14 -16 18 -8 4 -14 17 -14 27 0 10 -5
22 -10 25 -18 11 -8 115 17 174 31 77 30 116 -5 151 -16 16 -49 34 -73 41 -57
16 -189 18 -231 3z"/>
</g>
</svg>
